<?xml version="1.0" encoding="UTF-8" standalone="no"?>
<!DOCTYPE svg PUBLIC "-//W3C//DTD SVG 1.1//EN" "http://www.w3.org/Graphics/SVG/1.1/DTD/svg11.dtd">
<svg width="330" height="59" viewBox="0 0 330 59" version="1.1" xmlns="http://www.w3.org/2000/svg" xmlns:xlink="http://www.w3.org/1999/xlink" xml:space="preserve" style="fill-rule:evenodd;clip-rule:evenodd;stroke-linejoin:round;stroke-miterlimit:2;">
  <style type="text/css">
    <![CDATA[
        @keyframes fade__in__out {
            0%,
            100% {
                opacity: 0;
            } 
            50% {
                opacity: 1;
            } 
        }

        .is--coursor {
            display: block;
            animation: fade__in__out 1s infinite step-end;
        }
    ]]>
  </style>
  <g>
    <path d="M26.825,37.494C26.825,36.086 26.134,35 24.751,34.238C23.369,33.475 20.876,32.705 17.272,31.927C13.668,31.15 10.801,30.284 8.671,29.331C4.596,27.498 2.558,25.107 2.558,22.158C2.558,19.577 4.028,17.45 6.966,15.778C9.905,14.106 13.719,13.269 18.408,13.269C21.521,13.269 24.296,13.68 26.732,14.502C29.169,15.323 31.084,16.493 32.476,18.011C33.869,19.529 34.565,21.212 34.565,23.06L26.825,23.06C26.825,21.388 26.093,20.079 24.628,19.133C23.164,18.187 21.07,17.714 18.347,17.714C15.808,17.714 13.837,18.103 12.434,18.88C11.031,19.657 10.33,20.743 10.33,22.136C10.33,23.31 11.087,24.289 12.603,25.074C14.118,25.858 16.616,26.621 20.098,27.362C23.579,28.103 26.374,28.946 28.483,29.892C30.593,30.838 32.139,31.924 33.122,33.148C34.104,34.373 34.596,35.807 34.596,37.45C34.596,40.119 33.168,42.243 30.311,43.819C27.454,45.396 23.579,46.185 18.685,46.185C15.449,46.185 12.475,45.756 9.762,44.898C7.048,44.039 4.939,42.855 3.434,41.344C1.929,39.833 1.176,38.073 1.176,36.064L8.948,36.064C8.948,37.883 9.787,39.291 11.466,40.288C13.145,41.286 15.552,41.784 18.685,41.784C21.388,41.784 23.42,41.392 24.782,40.607C26.144,39.822 26.825,38.785 26.825,37.494Z" style="fill:#fff;fill-rule:nonzero;" />
    <path d="M51.49,13.71L64.391,38.264L77.261,13.71L87.306,13.71L87.306,45.745L79.565,45.745L79.565,35.184L80.333,21.058L67.125,45.745L61.565,45.745L48.388,21.08L49.156,35.184L49.156,45.745L41.415,45.745L41.415,13.71L51.49,13.71Z" style="fill:#fff;fill-rule:nonzero;" />
    <path d="M122.077,38.286L104.753,38.286L101.128,45.745L93.05,45.745L109.944,13.71L116.917,13.71L133.841,45.745L125.732,45.745L122.077,38.286ZM106.934,33.797L119.896,33.797L113.415,20.508L106.934,33.797Z" style="fill:#fff;fill-rule:nonzero;" />
    <path d="M216.221,41.74L236.524,41.74L236.524,46.185L208.449,46.185L208.449,14.15L216.221,14.15L216.221,41.74Z" style="fill:#fff;fill-rule:nonzero;" />
    <path d="M246.415,40.552C247.808,40.552 248.883,40.834 249.64,41.399C250.398,41.964 250.777,42.672 250.777,43.522C250.777,44.358 250.398,45.052 249.64,45.602C248.883,46.152 247.808,46.427 246.415,46.427C245.084,46.427 244.029,46.155 243.251,45.613C242.473,45.07 242.084,44.373 242.084,43.522C242.084,42.672 242.463,41.964 243.221,41.399C243.978,40.834 245.043,40.552 246.415,40.552Z" style="fill:#fff;fill-rule:nonzero;" />
    <path d="M267.825,34.282L267.825,46.185L260.053,46.185L260.053,14.15L277.162,14.15C282.159,14.15 286.127,15.081 289.065,16.944C292.004,18.807 293.473,21.271 293.473,24.337C293.473,27.476 292.034,29.918 289.157,31.663C286.28,33.409 282.251,34.282 277.07,34.282L267.825,34.282ZM267.825,29.815L277.162,29.815C279.927,29.815 282.036,29.349 283.49,28.418C284.944,27.487 285.671,26.141 285.671,24.381C285.671,22.65 284.934,21.267 283.459,20.233C281.985,19.199 279.958,18.667 277.377,18.638L267.825,18.638L267.825,29.815Z" style="fill:#fff;fill-rule:nonzero;" />
    <path d="M308.033,41.74L328.336,41.74L328.336,46.185L300.261,46.185L300.261,14.15L308.033,14.15L308.033,41.74Z" style="fill:#fff;fill-rule:nonzero;" />
    <g>
      <path d="M195.861,0.771L146.143,0.771C143.855,0.771 142,2.93 142,5.598L142,53.896C142,56.561 143.855,58.725 146.143,58.725L195.861,58.725C198.146,58.725 200.008,56.558 200.008,53.896L200.008,5.598C200.008,2.93 198.146,0.771 195.861,0.771ZM155.467,4.397C156.609,4.397 157.539,5.471 157.539,6.811C157.539,8.145 156.609,9.219 155.467,9.219C154.317,9.219 153.39,8.145 153.39,6.811C153.39,5.471 154.317,4.397 155.467,4.397ZM149.249,4.397C150.393,4.397 151.318,5.471 151.318,6.811C151.318,8.145 150.393,9.219 149.249,9.219C148.103,9.219 147.175,8.145 147.175,6.811C147.175,5.471 148.103,4.397 149.249,4.397ZM195.861,53.898L146.143,53.898L146.143,12.897L195.861,12.897L195.861,53.898Z" style="fill:#f9b826;fill-rule:nonzero;" />
      <g>
        <path d="M164.326,32.452L159.646,27.619L159.646,21L166.663,29.69L166.663,35.286L159.646,44L159.646,37.357L164.326,32.452Z" style="fill:#fff;fill-rule:nonzero;" />
        <path class="is--coursor" d="M182.362,44L165.283,44L168.213,40.508L182.362,40.508L182.362,44Z" style="fill:#fff;fill-rule:nonzero;" />
      </g>
    </g>
  </g>
</svg>
